# xmcd
#
# Track frame offsets: 
#        150
#        16729
#        31777
#        44809
#        59383
#        61068
#        75704
#        91545
#        110173
#        111487
#        128089
#        142327
#        160734
#        177259
#
# Disc length: 2618 seconds
#
# Revision: 0
# Processed by: cddbd v1.5.2PL0 Copyright (c) Steve Scherf et al.
# Submitted via: ExactAudioCopy v1.0b3
#
DISCID=ba0a380e
DTITLE=Josh Grider - Luck and Desire
DYEAR=2014
DGENRE=Country
TTITLE0=Luck and Desire
TTITLE1=Anything Can Happen
TTITLE2=White Van
TTITLE3=Boomerang
TTITLE4=Theme
TTITLE5=High Enough
TTITLE6=On Vinyl
TTITLE7=Haymaker
TTITLE8=Theme
TTITLE9=Here We Are
TTITLE10=Skin and Bone
TTITLE11=Pontiac
TTITLE12=Can't Stop
TTITLE13=One Night Taco Stand
EXTD=
EXTT0=
EXTT1=
EXTT2=
EXTT3=
EXTT4=
EXTT5=
EXTT6=
EXTT7=
EXTT8=
EXTT9=
EXTT10=
EXTT11=
EXTT12=
EXTT13=
PLAYORDER=
